<svg width="1920" height="1080" xmlns="http://www.w3.org/2000/svg">
 <!--! Font Awesome Pro 6.4.0 by @fontawesome - https://fontawesome.com License - https://fontawesome.com/license (Commercial License) Copyright 2023 Fonticons, Inc. -->

 <g>
  <title>Layer 1</title>
  <ellipse ry="85.83331" rx="85.83331" id="svg_2" cy="335.83305" cx="235.83279" stroke-width="0" stroke="#faccd7" fill="#c0eafe"/>
  <path id="svg_3" d="m986.66589,693.33294c-55.2486,0 -99.99997,-44.75137 -99.99997,-99.99997c0,-55.2486 44.75137,-99.99997 99.99997,-99.99997c55.2486,0 99.99997,44.75137 99.99997,99.99997c0,55.2486 -44.75137,99.99997 -99.99997,99.99997z" opacity="undefined" stroke-width="0" stroke="#faccd7" fill="#a3e0fd"/>
  <ellipse ry="38.33332" rx="38.33332" id="svg_4" cy="599.99963" cx="468.33272" stroke-width="0" stroke="#faccd7" fill="#a3e0fd"/>
  <path id="svg_5" d="m1424.16576,341.66638c-38.21362,0 -69.16665,-30.95303 -69.16665,-69.16665c0,-38.21362 30.95303,-69.16665 69.16665,-69.16665c38.21362,0 69.16665,30.95303 69.16665,69.16665c0,38.21362 -30.95303,69.16665 -69.16665,69.16665z" opacity="undefined" stroke-width="0" stroke="#faccd7" fill="#a3e0fd"/>
  <ellipse ry="39.16665" rx="39.16665" id="svg_6" cy="909.1662" cx="1874.16562" stroke-width="0" stroke="#faccd7" fill="#a3e0fd"/>
  <ellipse ry="19.16666" rx="19.16666" id="svg_7" cy="1052.49949" cx="765.83263" stroke-width="0" stroke="#faccd7" fill="#a3e0fd"/>
  <ellipse ry="66.66665" rx="66.66665" id="svg_8" cy="899.99954" cx="33.33285" stroke-width="0" stroke="#faccd7" fill="#a3e0fd"/>
  <path id="svg_9" d="m1750.83232,508.33299c-30.84714,0 -55.83332,-24.98618 -55.83332,-55.83332c0,-30.84714 24.98618,-55.83332 55.83332,-55.83332c30.84714,0 55.83332,24.98618 55.83332,55.83332c0,30.84714 -24.98618,55.83332 -55.83332,55.83332z" opacity="undefined" stroke-width="0" stroke="#faccd7" fill="#a3e0fd"/>
  <path id="svg_10" d="m818.33261,259.99974c-32.22835,0 -58.33332,-26.10496 -58.33332,-58.33332c0,-32.22835 26.10496,-58.33332 58.33332,-58.33332c32.22835,0 58.33332,26.10496 58.33332,58.33332c0,32.22835 -26.10496,58.33332 -58.33332,58.33332z" opacity="undefined" stroke-width="0" stroke="#faccd7" fill="#a3e0fd"/>
  <path id="svg_11" d="m1460.83241,898.33287c-25.32228,0 -45.83332,-20.51104 -45.83332,-45.83332c0,-25.32228 20.51104,-45.83332 45.83332,-45.83332c25.32228,0 45.83332,20.51104 45.83332,45.83332c0,25.32228 -20.51104,45.83332 -45.83332,45.83332z" opacity="undefined" stroke-width="0" stroke="#faccd7" fill="#a3e0fd"/>
 </g>
</svg>