<?xml version="1.0" encoding="UTF-8"?>
<svg id="Top" xmlns="http://www.w3.org/2000/svg" viewBox="0 0 1833.81 386.11">
  <defs>
    <style>
      .cls-1 {
        fill: #fff;
      }

      .cls-2 {
        fill: #76f6f5;
      }
    </style>
  </defs>
  <g id="Childish_Things">
    <g>
      <path class="cls-1" d="M190.97,227.22c-6.67,44.46-36.4,71.42-81.42,71.42-61.69,0-89.2-56.97-89.2-111.43s27.51-111.44,89.2-111.44c44.46,0,74.19,25.57,81.42,71.42l-41.13,5.56c-4.17-22.51-14.17-42.79-40.29-42.79-37.24,0-44.74,49.46-44.74,77.25s7.5,77.25,44.74,77.25c25.84,0,36.12-20.29,40.29-42.52l41.13,5.28Z"/>
      <path class="cls-1" d="M244.88,155.8c13.06-10.84,29.18-19.45,46.41-19.45s40.85,10.28,40.85,48.63v110.32h-41.13v-93.65c0-12.5.83-32.24-16.95-32.24-11.95,0-21.4,8.61-29.18,16.95v108.93h-41.13V79.1h41.13v76.7Z"/>
      <path class="cls-1" d="M390.49,116.89h-41.13v-37.79h41.13v37.79ZM390.49,295.3h-41.13v-155.62h41.13v155.62Z"/>
      <path class="cls-1" d="M449.4,295.3h-41.13V79.1h41.13v216.2Z"/>
      <path class="cls-1" d="M562.5,282.24c-12.5,11.12-22.23,16.4-39.46,16.4-31.4,0-60.3-19.45-60.3-85.04,0-57.52,34.46-77.25,56.96-77.25,16.67,0,26.68,8.34,38.35,18.62v-75.87h41.13v216.2h-33.07l-3.61-13.06ZM530.55,168.86c-22.79,0-27.51,28.9-27.51,46.13,0,18.62,3.61,48.63,28.34,48.63,12.23,0,20.29-8.06,26.68-17.79v-60.03c-7.23-8.61-15.56-16.95-27.51-16.95Z"/>
      <path class="cls-1" d="M658.1,116.89h-41.13v-37.79h41.13v37.79ZM658.1,295.3h-41.13v-155.62h41.13v155.62Z"/>
      <path class="cls-1" d="M746.46,185.26c-1.95-10.84-5.56-18.62-17.78-18.62-9.73,0-16.67,7.23-16.67,17.23,0,26.68,75.31,7.23,75.31,65.58,0,33.07-27.51,49.19-59.19,49.19s-52.24-15.56-56.41-47.8l38.62-4.17c.83,11.12,6.67,21.68,19.17,21.68,10.28,0,20.01-4.72,20.01-16.67,0-27.23-75.3-5-75.3-65.58,0-31.4,26.95-49.74,57.24-49.74,27.23,0,49.18,17.23,53.91,44.18l-38.9,4.72Z"/>
      <path class="cls-1" d="M839,155.8c13.06-10.84,29.18-19.45,46.41-19.45s40.85,10.28,40.85,48.63v110.32h-41.13v-93.65c0-12.5.83-32.24-16.95-32.24-11.95,0-21.4,8.61-29.18,16.95v108.93h-41.13V79.1h41.13v76.7Z"/>
      <path class="cls-1" d="M1159.96,115.78h-56.13v179.52h-43.35V115.78h-56.13v-36.68h155.61v36.68Z"/>
      <path class="cls-1" d="M1204.98,155.8c13.06-10.84,29.18-19.45,46.41-19.45s40.85,10.28,40.85,48.63v110.32h-41.13v-93.65c0-12.5.83-32.24-16.95-32.24-11.95,0-21.4,8.61-29.18,16.95v108.93h-41.13V79.1h41.13v76.7Z"/>
      <path class="cls-1" d="M1360.18,295.3h-48.12v-155.62h48.12v155.62Z"/>
      <path class="cls-1" d="M1418.68,155.8c13.06-10.84,29.18-19.45,46.41-19.45s40.85,10.28,40.85,48.63v110.32h-41.13v-93.65c0-12.5.83-32.24-16.95-32.24-11.95,0-21.4,8.61-29.18,16.95v108.93h-41.13v-155.62h41.13v16.12Z"/>
      <path class="cls-1" d="M1571.8,244.17c-4.72,0-11.67,2.5-11.67,9.73,0,20.29,107.82-15.01,107.82,45.85,0,23.06-15.56,47.52-77.25,47.52-53.63,0-71.97-18.9-71.97-39.18,0-11.95,7.5-18.06,16.95-23.62-6.67-5-12.23-10.84-12.23-19.73,0-15.28,8.34-23.34,20.29-31.12-11.39-11.12-19.45-25.01-19.45-42.8,0-34.46,29.18-54.47,62.8-54.47,13.62,0,26.68,3.89,38.35,10.84,8.34-7.78,15.84-12.78,28.07-12.78,3.89,0,8.06.28,11.95,1.11v28.9c-4.17-1.67-8.61-3.33-13.06-3.33s-7.22,1.39-11.11,3.33c4.45,8.34,8.34,17.51,8.34,26.4,0,34.46-28.9,54.47-62.52,54.47l-15.28-1.11ZM1558.73,295.58c-3.89,2.5-6.39,4.72-6.39,9.73,0,14.45,29.18,15.28,38.9,15.28,6.95,0,43.07-.83,43.07-13.34,0-8.06-5.56-7.23-30.01-8.62l-45.57-3.06ZM1587.08,218.05c17.23,0,22.23-14.17,22.23-28.9s-6.67-26.12-22.23-26.12c-17.23,0-22.51,14.45-22.51,29.18s6.67,25.84,22.51,25.84Z"/>
      <path class="cls-1" d="M1747.7,185.26c-1.95-10.84-5.56-18.62-17.78-18.62-9.73,0-16.67,7.23-16.67,17.23,0,26.68,75.3,7.23,75.3,65.58,0,33.07-27.51,49.19-59.19,49.19s-52.24-15.56-56.41-47.8l38.62-4.17c.83,11.12,6.67,21.68,19.17,21.68,10.28,0,20.01-4.72,20.01-16.67,0-27.23-75.3-5-75.3-65.58,0-31.4,26.95-49.74,57.24-49.74,27.23,0,49.18,17.23,53.91,44.18l-38.9,4.72Z"/>
    </g>
    <g>
      <path class="cls-2" d="M1323.13,87.55h24.38c.06.85.71.74,1.24.73,2.75-.06,5.46.33,8.18.63,2.64.3,3.89,1.81,4.56,4.02,1.24,4.13,2.4,8.29,3.51,12.46.43,1.6.91,3.11,2.22,4.24.59.51.84,1.22,1,1.98.32,1.5.15,3.01.18,4.51.04,1.5.25,1.69,1.8,1.49v6.2c-1.29.44-2.54.94-3.97.92-1.26-.02-1.99-.41-2.34-1.68-.49-1.75-1.48-3.24-2.83-4.48-4-3.68-9.92-2.68-12.01,2.21-.38.89-.45,1.85-.81,2.73-.26.63-.62.97-1.32.98-1.75.04-3.49.19-5.24.18-5.09-.03-10.19.16-15.28-.16-1-.06-1.51-.41-1.79-1.36-.62-2.1-1.49-4.1-2.5-6.05-.37-.72-.9-1.02-1.72-1.01-2.19.04-4.38.03-6.57.03-1.88,0-2.44.41-3.22,2.18-.65,1.46-1.07,2.99-1.51,4.51-.24.83-.46,1.76-1.57,1.84-.6.04-2.72-1.67-2.74-2.22-.06-1.76-.38-3.6,1.18-5,.57-.51.66-1.07.02-1.61-.4-.34-.49-.78-.49-1.28,0-7.31-.18-14.62.24-21.92.14-2.53,1.28-3.61,3.46-4.01,1.67-.3,3.4-.25,5.11-.29,2.59-.05,5.18-.03,7.76-.05.5,0,1.12.12,1.05-.73ZM1316.84,101.3c0-1.98.01-3.97-.2-5.94-.11-1-.53-1.54-1.56-1.54-1.59,0-3.19-.03-4.78.02-1.61.05-2.48.93-2.65,2.49-.33,2.97-.24,5.95-.24,8.92,0,1.09.48,1.64,1.6,1.82,2.07.34,4.12.1,6.18-.01,1.19-.06,1.64-.63,1.66-1.71.02-1.35,0-2.7,0-4.05ZM1327.42,100.69h-.01c0-1.63.01-3.25,0-4.88-.01-1.38-.41-1.79-1.76-1.8-1.51-.01-3.02-.02-4.53,0-1.77.02-2.74.96-2.73,2.73.03,2.97-.14,5.94.18,8.91.13,1.18.54,1.65,1.7,1.61,2.25-.08,3.64.11,5.46.07,1.22-.03,1.67-.44,1.69-1.64.02-1.66,0-3.33,0-5ZM1329.36,101.14s-.01,0-.02,0c0,1.47,0,2.94,0,4.41,0,.83.38,1.48,1.21,1.5,2.02.05,4.04.38,6.07.25.89-.06,1.44-.51,1.51-1.38.3-3.48.31-6.97.22-10.46-.02-.97-.58-1.5-1.64-1.47-1.51.04-3.02,0-4.53.03-1.78.04-2.78,1.04-2.82,2.84-.03,1.43,0,2.86,0,4.29ZM1340.51,100.7h.01c0,1.47.04,2.94-.01,4.41-.04,1.02.34,1.73,1.37,1.88,1.91.27,3.42.13,5.36.16.98.02,1.45-.81,1.57-1.81.34-3.05.16-6.11.2-9.16.02-1.37-.66-1.99-2.07-2-1.43,0-2.87,0-4.3,0-1.43,0-2.09.65-2.12,2.12-.03,1.47,0,2.94,0,4.41ZM1358.26,107.35s0-.03,0-.05c.6,0,1.19.02,1.79,0,1.6-.06,2.25-1.05,1.73-2.56-.41-1.2-.79-2.41-1.2-3.6-.7-2.02-1.36-4.06-2.17-6.03-.65-1.58-1.86-2.06-3.62-1.65-1.35.31-1.87.95-1.72,2.78.21,2.65.13,5.3.21,7.96.06,1.78.86,2.69,2.61,3,.78.14,1.58.11,2.37.16Z"/>
      <path class="cls-2" d="M1316.83,132.84c-3.39,0-6.42-2.93-6.73-6.52-.26-2.93.56-5.43,2.99-7.36,2.81-2.23,6.38-1.45,8.52,1.05,2.32,2.7,2.89,5.76,1.18,9.06-.82,1.59-2,3.15-3.65,3.51-1.42.31-1.62.17-2.31.27ZM1319.52,125.53c.01-1.96-1.11-3.35-2.73-3.38-1.53-.03-2.95,1.37-2.96,2.93-.02,1.73,1.53,3.45,3.1,3.45,1.38,0,2.59-1.4,2.6-3Z"/>
      <path class="cls-2" d="M1349.66,125c-.2-2.8,1.28-4.96,3.7-6.38,3.42-2.02,6.7.16,8.32,2.74,2.4,3.82.7,9.3-2.34,10.64-.66.29-1.5.84-2.39.86-4.22.09-7.3-3.09-7.29-7.86ZM1358.59,125.38c0-1.56-1.05-2.79-2.42-2.83-1.31-.04-2.67,1.3-2.69,2.65-.02,1.52,1.28,2.99,2.64,2.98,1.34,0,2.46-1.28,2.47-2.8Z"/>
    </g>
  </g>
</svg>