<svg width="448" height="448" xmlns="http://www.w3.org/2000/svg">
 <!--!Font Awesome Free 6.6.0 by @fontawesome - https://fontawesome.com License - https://fontawesome.com/license/free Copyright 2024 Fonticons, Inc.-->

 <g>
  <title>Layer 1</title>
  <path fill="#ffffff" id="svg_1" d="m89.95,292.05l-35.6,0l0,-137.4l35.6,0l0,137.4zm66.6,-73.1l9.1,-64.3l46.3,0l0,137.4l-31,0l0,-92.7l-13.4,92.7l-21.3,0l-13,-90.7l-0.1,90.7l-31.2,0l0,-137.4l46.1,0c0.5,8.3 2.8,18.1 4.3,29.4l4.2,34.9zm67.6,73.1l0,-137.4l26.6,0c17,0 27,0.9 33,2.4c6.1,1.7 10.7,4.2 13.9,7.9c3.1,3.3 5.1,6.6 5.8,12c0.9,4.4 1.4,13.1 1.4,26.2l0,48.2c0,12.3 -0.7,20.5 -1.9,24.7c-1.1,4.1 -3.1,7.4 -6,9.7c-2.8,2.4 -6.4,4.1 -10.7,5c-4.2,0.8 -10.6,1.3 -19.1,1.3l-43,0zm35.5,-113.9l0,89.4c5.1,0 8.3,-1 9.4,-2.3c1.1,-2 1.8,-7.6 1.8,-16.7l0,-53.3c0,-6.2 -0.1,-10.2 -0.7,-12c-0.3,-1.8 -1.2,-3 -2.6,-4.7c-1.4,0 -4.1,-0.4 -7.9,-0.4l0,0zm57.3,113.9l0,-137.4l34.1,0l0,43.9c2.9,-2.4 6.1,-4.9 9.5,-6.6c3.6,-1.5 8.8,-2.4 12.8,-2.4c4.8,0 8.9,0.8 12.3,2.2c3.4,1.5 6,3.5 8,6.2c1.7,2.6 2.7,5.3 3.1,7.8c0.4,2.6 -0.2,8 -0.2,16.2l0,38.6c0,8.2 0.2,14.3 -0.8,18.4c-1.1,4 -3.8,7.6 -7.8,9.6c-4.1,3.9 -8.9,5.3 -14.6,5.3c-4,0 -9.2,-0.9 -12.7,-2.5c-3.5,-1.8 -6.7,-4.5 -9.6,-8l-2.1,8.7l-32,0zm45.1,-20.7c0.7,-1.8 1,-6 1,-12.5l0,-35.4c0,-5.6 -0.3,-9.5 -1.1,-11.2c-0.7,-1.9 -3.7,-2.7 -5.8,-2.7c-2,0 -3.4,0.8 -4.1,2.3c-0.6,1.5 -1,5.4 -1,11.6l0,36.4c0,6.1 0.4,10 1.2,11.6c0.6,1.7 2.1,2.5 4.1,2.5c2.2,0 4.2,-0.8 5.7,-2.6l0,0zm56.8,-270.9c15.7,1.3 28.7,15.3 28.7,31.9l0,384.2c0,16.4 -11.9,30.4 -28.2,31c-0.3,0 -0.5,0.9 -0.8,0.9l-388.2,0c-0.3,0 -0.6,-0.9 -0.9,-0.1c-15.7,-1.4 -27.9,-13.8 -29,-30.2l0,-387.9c1.1,-15.9 13.8,-28.7 30.3,-30.7l387.4,0c0.2,0 0.5,0.9 0.7,0.9l0,0zm-388.1,9.3c-11.3,0.7 -20.3,9.7 -21,21.1l0,387.3c0.3,5.4 2.6,10.5 6.4,14.3c3.8,3.9 8.8,6.3 14.2,6.7l388.2,0c11.5,-1 20.6,-11.6 20.6,-22.6l0,-384.2c0,-5.7 -2.1,-11.2 -6,-15.4c-3.9,-4.3 -9.3,-6.8 -15,-7.2l-387.4,0z"/>
 </g>
</svg>