<svg width="950.0000000000001" height="600" xmlns="http://www.w3.org/2000/svg">

 <g>
  <title>Layer 1</title>
  <g id="svg_22">
   <g id="svg_20">
    <path id="svg_10" fill="#fff" d="m238.51005,326.51365l-56.13,0l0,179.52l-43.35,0l0,-179.52l-56.13,0l0,-36.68l155.61,0l0,36.68z" class="cls-1"/>
    <path id="svg_11" fill="#fff" d="m283.53005,366.53365c13.06,-10.84 29.18,-19.45 46.41,-19.45s40.85,10.28 40.85,48.63l0,110.32l-41.13,0l0,-93.65c0,-12.5 0.83,-32.24 -16.95,-32.24c-11.95,0 -21.4,8.61 -29.18,16.95l0,108.93l-41.13,0l0,-216.19l41.13,0l0,76.7z" class="cls-1"/>
    <path id="svg_12" fill="#fff" d="m438.73005,506.03365l-48.12,0l0,-155.62l48.12,0l0,155.62z" class="cls-1"/>
    <path id="svg_13" fill="#fff" d="m497.23005,366.53365c13.06,-10.84 29.18,-19.45 46.41,-19.45s40.85,10.28 40.85,48.63l0,110.32l-41.13,0l0,-93.65c0,-12.5 0.83,-32.24 -16.95,-32.24c-11.95,0 -21.4,8.61 -29.18,16.95l0,108.93l-41.13,0l0,-155.62l41.13,0l0,16.12l0,0.01z" class="cls-1"/>
    <path id="svg_14" fill="#fff" d="m650.35005,454.90365c-4.72,0 -11.67,2.5 -11.67,9.73c0,20.29 107.82,-15.01 107.82,45.85c0,23.06 -15.56,47.52 -77.25,47.52c-53.63,0 -71.97,-18.9 -71.97,-39.18c0,-11.95 7.5,-18.06 16.95,-23.62c-6.67,-5 -12.23,-10.84 -12.23,-19.73c0,-15.28 8.34,-23.34 20.29,-31.12c-11.39,-11.12 -19.45,-25.01 -19.45,-42.8c0,-34.46 29.18,-54.47 62.8,-54.47c13.62,0 26.68,3.89 38.35,10.84c8.34,-7.78 15.84,-12.78 28.07,-12.78c3.89,0 8.06,0.28 11.95,1.11l0,28.9c-4.17,-1.67 -8.61,-3.33 -13.06,-3.33s-7.22,1.39 -11.11,3.33c4.45,8.34 8.34,17.51 8.34,26.4c0,34.46 -28.9,54.47 -62.52,54.47l-15.28,-1.11l-0.03,-0.01zm-13.07,51.41c-3.89,2.5 -6.39,4.72 -6.39,9.73c0,14.45 29.18,15.28 38.9,15.28c6.95,0 43.07,-0.83 43.07,-13.34c0,-8.06 -5.56,-7.23 -30.01,-8.62l-45.57,-3.06l0,0.01zm28.35,-77.53c17.23,0 22.23,-14.17 22.23,-28.9s-6.67,-26.12 -22.23,-26.12c-17.23,0 -22.51,14.45 -22.51,29.18s6.67,25.84 22.51,25.84z" class="cls-1"/>
    <path id="svg_15" fill="#fff" d="m826.25005,395.99365c-1.95,-10.84 -5.56,-18.62 -17.78,-18.62c-9.73,0 -16.67,7.23 -16.67,17.23c0,26.68 75.3,7.23 75.3,65.58c0,33.07 -27.51,49.19 -59.19,49.19s-52.24,-15.56 -56.41,-47.8l38.62,-4.17c0.83,11.12 6.67,21.68 19.17,21.68c10.28,0 20.01,-4.72 20.01,-16.67c0,-27.23 -75.3,-5 -75.3,-65.58c0,-31.4 26.95,-49.74 57.24,-49.74c27.23,0 49.18,17.23 53.91,44.18l-38.9,4.72z" class="cls-1"/>
    <g id="svg_16">
     <path id="svg_17" fill="#76f6f5" d="m401.68005,298.28365l24.38,0c0.06,0.85 0.71,0.74 1.24,0.73c2.75,-0.06 5.46,0.33 8.18,0.63c2.64,0.3 3.89,1.81 4.56,4.02c1.24,4.13 2.4,8.29 3.51,12.46c0.43,1.6 0.91,3.11 2.22,4.24c0.59,0.51 0.84,1.22 1,1.98c0.32,1.5 0.15,3.01 0.18,4.51c0.04,1.5 0.25,1.69 1.8,1.49l0,6.2c-1.29,0.44 -2.54,0.94 -3.97,0.92c-1.26,-0.02 -1.99,-0.41 -2.34,-1.68c-0.49,-1.75 -1.48,-3.24 -2.83,-4.48c-4,-3.68 -9.92,-2.68 -12.01,2.21c-0.38,0.89 -0.45,1.85 -0.81,2.73c-0.26,0.63 -0.62,0.97 -1.32,0.98c-1.75,0.04 -3.49,0.19 -5.24,0.18c-5.09,-0.03 -10.19,0.16 -15.28,-0.16c-1,-0.06 -1.51,-0.41 -1.79,-1.36c-0.62,-2.1 -1.49,-4.1 -2.5,-6.05c-0.37,-0.72 -0.9,-1.02 -1.72,-1.01c-2.19,0.04 -4.38,0.03 -6.57,0.03c-1.88,0 -2.44,0.41 -3.22,2.18c-0.65,1.46 -1.07,2.99 -1.51,4.51c-0.24,0.83 -0.46,1.76 -1.57,1.84c-0.6,0.04 -2.72,-1.67 -2.74,-2.22c-0.06,-1.76 -0.38,-3.6 1.18,-5c0.57,-0.51 0.66,-1.07 0.02,-1.61c-0.4,-0.34 -0.49,-0.78 -0.49,-1.28c0,-7.31 -0.18,-14.62 0.24,-21.92c0.14,-2.53 1.28,-3.61 3.46,-4.01c1.67,-0.3 3.4,-0.25 5.11,-0.29c2.59,-0.05 5.18,-0.03 7.76,-0.05c0.5,0 1.12,0.12 1.05,-0.73l0.02,0.01zm-6.29,13.75c0,-1.98 0.01,-3.97 -0.2,-5.94c-0.11,-1 -0.53,-1.54 -1.56,-1.54c-1.59,0 -3.19,-0.03 -4.78,0.02c-1.61,0.05 -2.48,0.93 -2.65,2.49c-0.33,2.97 -0.24,5.95 -0.24,8.92c0,1.09 0.48,1.64 1.6,1.82c2.07,0.34 4.12,0.1 6.18,-0.01c1.19,-0.06 1.64,-0.63 1.66,-1.71c0.02,-1.35 0,-2.7 0,-4.05l-0.01,0zm10.58,-0.61l-0.01,0c0,-1.63 0.01,-3.25 0,-4.88c-0.01,-1.38 -0.41,-1.79 -1.76,-1.8c-1.51,-0.01 -3.02,-0.02 -4.53,0c-1.77,0.02 -2.74,0.96 -2.73,2.73c0.03,2.97 -0.14,5.94 0.18,8.91c0.13,1.18 0.54,1.65 1.7,1.61c2.25,-0.08 3.64,0.11 5.46,0.07c1.22,-0.03 1.67,-0.44 1.69,-1.64c0.02,-1.66 0,-3.33 0,-5zm1.94,0.45s-0.01,0 -0.02,0c0,1.47 0,2.94 0,4.41c0,0.83 0.38,1.48 1.21,1.5c2.02,0.05 4.04,0.38 6.07,0.25c0.89,-0.06 1.44,-0.51 1.51,-1.38c0.3,-3.48 0.31,-6.97 0.22,-10.46c-0.02,-0.97 -0.58,-1.5 -1.64,-1.47c-1.51,0.04 -3.02,0 -4.53,0.03c-1.78,0.04 -2.78,1.04 -2.82,2.84c-0.03,1.43 0,2.86 0,4.29l0,-0.01zm11.15,-0.44l0.01,0c0,1.47 0.04,2.94 -0.01,4.41c-0.04,1.02 0.34,1.73 1.37,1.88c1.91,0.27 3.42,0.13 5.36,0.16c0.98,0.02 1.45,-0.81 1.57,-1.81c0.34,-3.05 0.16,-6.11 0.2,-9.16c0.02,-1.37 -0.66,-1.99 -2.07,-2c-1.43,0 -2.87,0 -4.3,0c-1.43,0 -2.09,0.65 -2.12,2.12c-0.03,1.47 0,2.94 0,4.41l-0.01,-0.01zm17.75,6.65s0,-0.03 0,-0.05c0.6,0 1.19,0.02 1.79,0c1.6,-0.06 2.25,-1.05 1.73,-2.56c-0.41,-1.2 -0.79,-2.41 -1.2,-3.6c-0.7,-2.02 -1.36,-4.06 -2.17,-6.03c-0.65,-1.58 -1.86,-2.06 -3.62,-1.65c-1.35,0.31 -1.87,0.95 -1.72,2.78c0.21,2.65 0.13,5.3 0.21,7.96c0.06,1.78 0.86,2.69 2.61,3c0.78,0.14 1.58,0.11 2.37,0.16l0,-0.01z" class="cls-2"/>
     <path id="svg_18" fill="#76f6f5" d="m395.38005,343.57365c-3.39,0 -6.42,-2.93 -6.73,-6.52c-0.26,-2.93 0.56,-5.43 2.99,-7.36c2.81,-2.23 6.38,-1.45 8.52,1.05c2.32,2.7 2.89,5.76 1.18,9.06c-0.82,1.59 -2,3.15 -3.65,3.51c-1.42,0.31 -1.62,0.17 -2.31,0.27l0,-0.01zm2.69,-7.31c0.01,-1.96 -1.11,-3.35 -2.73,-3.38c-1.53,-0.03 -2.95,1.37 -2.96,2.93c-0.02,1.73 1.53,3.45 3.1,3.45c1.38,0 2.59,-1.4 2.6,-3l-0.01,0z" class="cls-2"/>
     <path id="svg_19" fill="#76f6f5" d="m428.21005,335.73365c-0.2,-2.8 1.28,-4.96 3.7,-6.38c3.42,-2.02 6.7,0.16 8.32,2.74c2.4,3.82 0.7,9.3 -2.34,10.64c-0.66,0.29 -1.5,0.84 -2.39,0.86c-4.22,0.09 -7.3,-3.09 -7.29,-7.86zm8.93,0.38c0,-1.56 -1.05,-2.79 -2.42,-2.83c-1.31,-0.04 -2.67,1.3 -2.69,2.65c-0.02,1.52 1.28,2.99 2.64,2.98c1.34,0 2.46,-1.28 2.47,-2.8z" class="cls-2"/>
    </g>
   </g>
   <g id="svg_21">
    <path id="svg_2" fill="#fff" d="m192.66501,193.44634c-6.67,44.46 -36.4,71.42 -81.42,71.42c-61.69,0 -89.2,-56.97 -89.2,-111.43s27.51,-111.44 89.2,-111.44c44.46,0 74.19,25.57 81.42,71.42l-41.13,5.56c-4.17,-22.51 -14.17,-42.79 -40.29,-42.79c-37.24,0 -44.74,49.46 -44.74,77.25s7.5,77.25 44.74,77.25c25.84,0 36.12,-20.29 40.29,-42.52l41.13,5.28z" class="cls-1"/>
    <path id="svg_3" fill="#fff" d="m246.57501,122.02634c13.06,-10.84 29.18,-19.45 46.41,-19.45s40.85,10.28 40.85,48.63l0,110.32l-41.13,0l0,-93.65c0,-12.5 0.83,-32.24 -16.95,-32.24c-11.95,0 -21.4,8.61 -29.18,16.95l0,108.93l-41.13,0l0,-216.19l41.13,0l0,76.7z" class="cls-1"/>
    <path id="svg_4" fill="#fff" d="m392.18501,83.11634l-41.13,0l0,-37.79l41.13,0l0,37.79zm0,178.41l-41.13,0l0,-155.62l41.13,0l0,155.62z" class="cls-1"/>
    <path id="svg_5" fill="#fff" d="m451.09501,261.52634l-41.13,0l0,-216.2l41.13,0l0,216.2z" class="cls-1"/>
    <path id="svg_6" fill="#fff" d="m564.19501,248.46634c-12.5,11.12 -22.23,16.4 -39.46,16.4c-31.4,0 -60.3,-19.45 -60.3,-85.04c0,-57.52 34.46,-77.25 56.96,-77.25c16.67,0 26.68,8.34 38.35,18.62l0,-75.87l41.13,0l0,216.2l-33.07,0l-3.61,-13.06zm-31.95,-113.38c-22.79,0 -27.51,28.9 -27.51,46.13c0,18.62 3.61,48.63 28.34,48.63c12.23,0 20.29,-8.06 26.68,-17.79l0,-60.03c-7.23,-8.61 -15.56,-16.95 -27.51,-16.95l0,0.01z" class="cls-1"/>
    <path id="svg_7" fill="#fff" d="m659.79501,83.11634l-41.13,0l0,-37.79l41.13,0l0,37.79zm0,178.41l-41.13,0l0,-155.62l41.13,0l0,155.62z" class="cls-1"/>
    <path id="svg_8" fill="#fff" d="m748.15501,151.48634c-1.95,-10.84 -5.56,-18.62 -17.78,-18.62c-9.73,0 -16.67,7.23 -16.67,17.23c0,26.68 75.31,7.23 75.31,65.58c0,33.07 -27.51,49.19 -59.19,49.19s-52.24,-15.56 -56.41,-47.8l38.62,-4.17c0.83,11.12 6.67,21.68 19.17,21.68c10.28,0 20.01,-4.72 20.01,-16.67c0,-27.23 -75.3,-5 -75.3,-65.58c0,-31.4 26.95,-49.74 57.24,-49.74c27.23,0 49.18,17.23 53.91,44.18l-38.9,4.72l-0.01,0z" class="cls-1"/>
    <path id="svg_9" fill="#fff" d="m840.69501,122.02634c13.06,-10.84 29.18,-19.45 46.41,-19.45s40.85,10.28 40.85,48.63l0,110.32l-41.13,0l0,-93.65c0,-12.5 0.83,-32.24 -16.95,-32.24c-11.95,0 -21.4,8.61 -29.18,16.95l0,108.93l-41.13,0l0,-216.19l41.13,0l0,76.7z" class="cls-1"/>
   </g>
  </g>
 </g>
</svg>